<svg width="20" height="20" viewBox="0 0 20 20" fill="none" xmlns="http://www.w3.org/2000/svg">
<path d="M2.5 15.8333C5.2775 14.1666 6.66667 12.5 6.66667 10.8333C6.66667 8.33331 5.83333 8.33331 5 8.33331C4.16667 8.33331 3.30667 9.23748 3.33333 10.8333C3.36167 12.54 4.715 13.2308 5.41667 14.1666C6.66667 15.8333 7.5 16.25 8.33333 15C8.88917 14.1666 9.30583 13.4725 9.58333 12.9166C10.4167 14.8608 11.5275 15.8333 12.9167 15.8333H15" stroke="#4E4B4B" stroke-width="1.25" stroke-linecap="round" stroke-linejoin="round"/>
<path d="M16.6667 14.1667V4.16667C16.6667 3.2325 15.9342 2.5 15 2.5C14.0658 2.5 13.3333 3.2325 13.3333 4.16667V14.1667L15 15.8333L16.6667 14.1667Z" stroke="#4E4B4B" stroke-width="1.25" stroke-linecap="round" stroke-linejoin="round"/>
<path d="M13.3333 5.83331H16.6667" stroke="#4E4B4B" stroke-width="1.25" stroke-linecap="round" stroke-linejoin="round"/>
</svg>
